<?xml version="1.0" encoding="UTF-8"?><svg id="a" xmlns="http://www.w3.org/2000/svg" viewBox="0 0 100 100"><defs><style>.b{fill:none;stroke:#000;stroke-miterlimit:10;}</style></defs><rect class="b" x="40.909" y="78.66" width="1" height="1"/><rect class="b" x="41.429" y="21.386" width="1" height="1"/><rect class="b" x="20.571" y="41.721" width="1" height="1"/><rect class="b" x="71.955" y="71.428" width="1" height="1"/><rect class="b" x="27.363" y="70.163" width="1" height="1"/><rect class="b" x="56.403" y="20.34" width="1" height="1"/><rect class="b" x="60.493" y="63.76" width="1" height="1"/><rect class="b" x="69.095" y="28.209" width="1" height="1"/><rect class="b" x="20.787" y="56.761" width="1" height="1"/><rect class="b" x="35.59" y="51.877" width="1" height="1"/><rect class="b" x="54.924" y="35.457" width="1" height="1"/><rect class="b" x="78.014" y="40.147" width="1" height="1"/><rect class="b" x="78.429" y="56.035" width="1" height="1"/><rect class="b" x="65.706" y="47.544" width="1" height="1"/><rect class="b" x="40.093" y="38.052" width="1" height="1"/><rect class="b" x="42.869" y="64.325" width="1" height="1"/><rect class="b" x="27.769" y="28.499" width="1" height="1"/><rect class="b" x="55.976" y="78.227" width="1" height="1"/><rect class="b" x="51.291" y="51.908" width="1" height="1"/></svg>