<?xml version="1.0" encoding="utf-8"?>
<!-- Generator: Adobe Illustrator 16.0.0, SVG Export Plug-In . SVG Version: 6.00 Build 0)  -->
<!DOCTYPE svg PUBLIC "-//W3C//DTD SVG 1.1//EN" "http://www.w3.org/Graphics/SVG/1.1/DTD/svg11.dtd">
<svg version="1.1" id="Layer_1" xmlns="http://www.w3.org/2000/svg" xmlns:xlink="http://www.w3.org/1999/xlink" x="0px" y="0px"
	 width="120.012px" height="150.082px" viewBox="0 0 120.012 150.082" enable-background="new 0 0 120.012 150.082"
	 xml:space="preserve">
<rect x="0.381" fill="#FFFFFF" width="120.006" height="150.01"/>
<g>
	<g>
		<rect x="0" fill="none" stroke="#192440" stroke-width="0.5" stroke-miterlimit="10" width="90" height="120"/>
		<line fill="none" stroke="#192440" stroke-width="0.5" stroke-miterlimit="10" x1="0" y1="60.008" x2="90" y2="60.008"/>
		<line fill="none" stroke="#192440" stroke-width="0.5" stroke-miterlimit="10" x1="0" y1="90" x2="90" y2="90"/>
		<line fill="none" stroke="#192440" stroke-miterlimit="10" x1="30.007" y1="29.992" x2="90" y2="29.992"/>
		<line fill="none" stroke="#192440" stroke-width="0.5" stroke-miterlimit="10" x1="0" y1="29.992" x2="30.007" y2="29.992"/>
		<line fill="none" stroke="#192440" stroke-miterlimit="10" x1="30" y1="30.001" x2="30" y2="120"/>
		<line fill="none" stroke="#192440" stroke-width="0.5" stroke-miterlimit="10" x1="30" y1="0" x2="30" y2="30.001"/>
		<line fill="none" stroke="#192440" stroke-width="0.5" stroke-miterlimit="10" x1="60" y1="0" x2="60" y2="120"/>
	</g>
	<rect x="30" y="40" fill="none" width="30" height="10"/>
	<text transform="matrix(1 0 0 1 33.2097 49.0039)" fill="#192440" font-family="'ProximaNova-Bold'" font-size="12">30%</text>
	<rect x="30" y="70" fill="none" width="30" height="10"/>
	<text transform="matrix(1 0 0 1 33.3479 79.0039)" fill="#192440" font-family="'ProximaNova-Bold'" font-size="12">34%</text>
	<rect x="30" y="10" fill="none" width="30" height="10"/>
	<text transform="matrix(1 0 0 1 40.9919 19.0039)" fill="#192440" font-family="'ProximaNova-Bold'" font-size="12">X</text>
	<rect x="60" y="10" fill="none" width="30" height="10"/>
	<text transform="matrix(1 0 0 1 71.1292 19.0039)" fill="#192440" font-family="'ProximaNova-Bold'" font-size="12">Y</text>
	<rect x="0" y="40" fill="none" width="30" height="10"/>
	<text transform="matrix(1 0 0 1 10.8958 49.0039)" fill="#192440" font-family="'ProximaNova-Bold'" font-size="12">A</text>
	<rect x="0" y="70" fill="none" width="30" height="10"/>
	<text transform="matrix(1 0 0 1 11.0217 79.0039)" fill="#192440" font-family="'ProximaNova-Bold'" font-size="12">B</text>
	<rect x="0" y="100" fill="none" width="30" height="10"/>
	<text transform="matrix(1 0 0 1 10.8777 109.0039)" fill="#192440" font-family="'ProximaNova-Bold'" font-size="12">C</text>
	<rect x="30" y="100" fill="none" width="30" height="10"/>
	<text transform="matrix(1 0 0 1 33.2039 109.0039)" fill="#192440" font-family="'ProximaNova-Bold'" font-size="12">26%</text>
	<rect x="60.008" y="40" fill="none" width="30" height="10"/>
	<text transform="matrix(1 0 0 1 63.2249 49.0039)" fill="#192440" font-family="'ProximaNova-Bold'" font-size="12">28%</text>
	<rect x="60.008" y="70" fill="none" width="30" height="10"/>
	<text transform="matrix(1 0 0 1 63.303 79.0039)" fill="#192440" font-family="'ProximaNova-Bold'" font-size="12">38%</text>
	<rect x="60.008" y="100" fill="none" width="30" height="10"/>
	<text transform="matrix(1 0 0 1 63.2776 109.0039)" fill="#192440" font-family="'ProximaNova-Bold'" font-size="12">24%</text>
	<g>
		<polyline fill="none" stroke="#192440" stroke-width="1.7" stroke-linejoin="round" stroke-miterlimit="10" points="40.008,132.1 
			45.008,137.1 50.008,132.1 		"/>
		<polyline fill="none" stroke="#192440" stroke-width="0.5" stroke-miterlimit="10" points="0.005,120.08 0.005,150.082 
			90.01,150.082 90.01,120.08 		"/>
	</g>
	<g>
		<polyline fill="none" stroke="#192440" stroke-width="1.7" stroke-linejoin="round" stroke-miterlimit="10" points="
			102.029,64.742 107.029,59.742 102.029,54.742 		"/>
		<polyline fill="none" stroke="#192440" stroke-width="0.5" stroke-miterlimit="10" points="90.01,120.08 120.012,120.08 
			120.012,0.073 90.01,0.073 		"/>
	</g>
</g>
</svg>
