<?xml version="1.0" encoding="utf-8"?>
<!-- Generator: Adobe Illustrator 16.0.0, SVG Export Plug-In . SVG Version: 6.00 Build 0)  -->
<!DOCTYPE svg PUBLIC "-//W3C//DTD SVG 1.1//EN" "http://www.w3.org/Graphics/SVG/1.1/DTD/svg11.dtd">
<svg version="1.1" id="Layer_1" xmlns="http://www.w3.org/2000/svg" xmlns:xlink="http://www.w3.org/1999/xlink" x="0px" y="0px"
	 width="110.149px" height="150.003px" viewBox="0 0 110.149 150.003" enable-background="new 0 0 110.149 150.003"
	 xml:space="preserve">
<rect x="0.381" fill="#FFFFFF" width="109.618" height="150.009"/>
<g>
	<g>
		<rect x="0.142" fill="none" stroke="#192440" stroke-width="0.5" stroke-miterlimit="10" width="110.007" height="120.001"/>
		<line fill="none" stroke="#192440" stroke-width="0.5" stroke-miterlimit="10" x1="0" y1="60.007" x2="109.999" y2="60.007"/>
		<line fill="none" stroke="#192440" stroke-width="0.5" stroke-miterlimit="10" x1="0" y1="90.001" x2="109.999" y2="90.001"/>
		<line fill="none" stroke="#192440" stroke-miterlimit="10" x1="0" y1="29.993" x2="109.999" y2="29.993"/>
		<line fill="none" stroke="#192440" stroke-width="0.5" stroke-miterlimit="10" x1="79.999" y1="0" x2="79.999" y2="120.001"/>
		<line fill="none" stroke="#192440" stroke-width="0.5" stroke-miterlimit="10" x1="50.332" y1="0" x2="50.332" y2="120.001"/>
		<path fill="none" stroke="#192440" stroke-width="0.5" stroke-miterlimit="10" d="M110.149,120.001"/>
		<path fill="none" stroke="#192440" stroke-width="0.5" stroke-miterlimit="10" d="M110.149,0"/>
	</g>
	<rect x="50" y="40" fill="none" width="30" height="10"/>
	<text transform="matrix(1 0 0 1 57.7573 49.0034)" fill="#192440" font-family="'ProximaNova-Bold'" font-size="12">30</text>
	<rect x="50" y="70.001" fill="none" width="30" height="10"/>
	<text transform="matrix(1 0 0 1 57.896 79.0034)" fill="#192440" font-family="'ProximaNova-Bold'" font-size="12">34</text>
	<rect y="10" fill="none" width="50" height="10"/>
	<text transform="matrix(1 0 0 1 14.0684 19.0034)" fill="#192440" font-family="'ProximaNova-Bold'" font-size="12">Age</text>
	<rect x="50" y="10" fill="none" width="30" height="10"/>
	<text transform="matrix(1 0 0 1 61.5737 19.0034)" fill="#192440" font-family="'ProximaNova-Bold'" font-size="12">F</text>
	<rect y="40" fill="none" width="50" height="10"/>
	<text transform="matrix(1 0 0 1 9.6943 49.0034)" fill="#192440" font-family="'ProximaNova-Bold'" font-size="12">10-20</text>
	<rect y="70.001" fill="none" width="50" height="10"/>
	<text transform="matrix(1 0 0 1 8.6382 79.0034)" fill="#192440" font-family="'ProximaNova-Bold'" font-size="12">20-30</text>
	<rect y="100.001" fill="none" width="50" height="10"/>
	<text transform="matrix(1 0 0 1 8.6562 109.0034)" fill="#192440" font-family="'ProximaNova-Bold'" font-size="12">30-40</text>
	<rect x="50" y="100.001" fill="none" width="30" height="10"/>
	<text transform="matrix(1 0 0 1 57.8413 109.0034)" fill="#192440" font-family="'ProximaNova-Bold'" font-size="12">38</text>
	<rect x="79.999" y="40" fill="none" width="30" height="10"/>
	<text transform="matrix(1 0 0 1 87.7632 49.0034)" fill="#192440" font-family="'ProximaNova-Bold'" font-size="12">28</text>
	<rect x="79.999" y="70.001" fill="none" width="30" height="10"/>
	<text transform="matrix(1 0 0 1 87.8003 79.0034)" fill="#192440" font-family="'ProximaNova-Bold'" font-size="12">22</text>
	<rect x="79.999" y="10" fill="none" width="30" height="10"/>
	<text transform="matrix(1 0 0 1 89.8696 19.0034)" fill="#192440" font-family="'ProximaNova-Bold'" font-size="12">M</text>
	<rect x="79.999" y="100.001" fill="none" width="30" height="10"/>
	<text transform="matrix(1 0 0 1 87.7515 109.0034)" fill="#192440" font-family="'ProximaNova-Bold'" font-size="12">26</text>
	<g>
		<polyline fill="none" stroke="#192440" stroke-width="1.7" stroke-linejoin="round" stroke-miterlimit="10" points="
			50.146,132.021 55.146,137.021 60.146,132.021 		"/>
		<polyline fill="none" stroke="#192440" stroke-width="0.5" stroke-miterlimit="10" points="0.142,120.001 0.142,150.003 
			110.149,150.003 110.149,120.001 		"/>
	</g>
</g>
</svg>
